<svg xmlns="http://www.w3.org/2000/svg" viewBox="0 0 480 760" role="img" aria-labelledby="title desc">
  <title id="title">文標の記事構造モックアップ</title>
  <desc id="desc">AI検索とSEOを意識した記事構造を、縦長の管理画面風に整理した図。</desc>
  <defs>
    <linearGradient id="bg" x1="56" y1="24" x2="424" y2="736" gradientUnits="userSpaceOnUse">
      <stop offset="0" stop-color="#ecfff8"/>
      <stop offset=".46" stop-color="#ffffff"/>
      <stop offset="1" stop-color="#eaf4ff"/>
    </linearGradient>
    <linearGradient id="brand" x1="106" y1="97" x2="384" y2="641" gradientUnits="userSpaceOnUse">
      <stop offset="0" stop-color="#0aa987"/>
      <stop offset="1" stop-color="#2f7df6"/>
    </linearGradient>
    <linearGradient id="dark" x1="96" y1="82" x2="420" y2="664" gradientUnits="userSpaceOnUse">
      <stop offset="0" stop-color="#08241f"/>
      <stop offset="1" stop-color="#0d5f50"/>
    </linearGradient>
    <filter id="shadow" x="-20%" y="-20%" width="140%" height="140%">
      <feDropShadow dx="0" dy="24" stdDeviation="24" flood-color="#052d32" flood-opacity=".28"/>
    </filter>
    <filter id="soft" x="-20%" y="-20%" width="140%" height="140%">
      <feDropShadow dx="0" dy="10" stdDeviation="12" flood-color="#0a8f72" flood-opacity=".18"/>
    </filter>
  </defs>
  <rect width="480" height="760" rx="52" fill="#063b33"/>
  <circle cx="420" cy="96" r="160" fill="#22d3a3" opacity=".13"/>
  <circle cx="48" cy="650" r="150" fill="#2f7df6" opacity=".16"/>
  <path d="M72 82c0-28 22-50 50-50h236c28 0 50 22 50 50v596c0 28-22 50-50 50H122c-28 0-50-22-50-50V82Z" fill="url(#bg)" filter="url(#shadow)"/>
  <path d="M118 34h244c25 0 46 21 46 46v102H72V80c0-25 21-46 46-46Z" fill="url(#dark)"/>
  <g transform="translate(105 72)">
    <rect width="270" height="68" rx="24" fill="rgba(255,255,255,.12)" stroke="rgba(255,255,255,.24)"/>
    <circle cx="39" cy="34" r="17" fill="#20e0b0"/>
    <path d="M31 34h16M39 26v16" stroke="#063b33" stroke-width="5" stroke-linecap="round"/>
    <text x="68" y="31" fill="#fff" font-size="20" font-weight="800" font-family="Arial,'Hiragino Sans','Yu Gothic',sans-serif">Bunsirube</text>
    <text x="68" y="53" fill="#b9f5e7" font-size="12" font-weight="700" font-family="Arial,'Hiragino Sans','Yu Gothic',sans-serif">Article structure theme</text>
  </g>
  <g filter="url(#soft)">
    <rect x="102" y="218" width="276" height="72" rx="20" fill="#ffffff"/>
    <rect x="122" y="238" width="82" height="12" rx="6" fill="#0aa987"/>
    <rect x="122" y="260" width="186" height="10" rx="5" fill="#dceae5"/>
    <rect x="122" y="276" width="132" height="10" rx="5" fill="#e7f2ee"/>
    <circle cx="337" cy="254" r="22" fill="#e9fbf5"/>
    <path d="m326 254 8 8 18-21" fill="none" stroke="#0aa987" stroke-width="6" stroke-linecap="round" stroke-linejoin="round"/>
  </g>
  <g>
    <rect x="102" y="315" width="276" height="244" rx="26" fill="#f7fbfa" stroke="#d5e8e2"/>
    <text x="128" y="355" fill="#073b33" font-size="22" font-weight="900" font-family="Arial,'Hiragino Sans','Yu Gothic',sans-serif">記事設計</text>
    <rect x="128" y="382" width="224" height="38" rx="14" fill="#e8f7f2"/>
    <rect x="142" y="396" width="42" height="10" rx="5" fill="#0aa987"/>
    <rect x="196" y="396" width="112" height="10" rx="5" fill="#8fcfbd"/>
    <rect x="128" y="435" width="224" height="38" rx="14" fill="#edf3ff"/>
    <rect x="142" y="449" width="58" height="10" rx="5" fill="#2f7df6"/>
    <rect x="212" y="449" width="88" height="10" rx="5" fill="#9fbdf4"/>
    <rect x="128" y="488" width="224" height="38" rx="14" fill="#fff6df"/>
    <rect x="142" y="502" width="34" height="10" rx="5" fill="#f5a524"/>
    <rect x="188" y="502" width="126" height="10" rx="5" fill="#e7c875"/>
    <path d="M122 372h236" stroke="#d9ebe5"/>
  </g>
  <g transform="translate(102 586)">
    <rect width="276" height="88" rx="24" fill="url(#brand)"/>
    <text x="28" y="36" fill="#fff" font-size="17" font-weight="900" font-family="Arial,'Hiragino Sans','Yu Gothic',sans-serif">FAQ JSON-LD</text>
    <text x="28" y="62" fill="#dcfff6" font-size="14" font-weight="800" font-family="Arial,'Hiragino Sans','Yu Gothic',sans-serif">SEO / AI search ready</text>
    <circle cx="226" cy="44" r="24" fill="rgba(255,255,255,.22)"/>
    <path d="M214 44h24M226 32v24" stroke="#fff" stroke-width="6" stroke-linecap="round"/>
  </g>
  <g transform="translate(56 572)" opacity=".95">
    <rect width="88" height="34" rx="17" fill="#083f36" stroke="#4bd5b6"/>
    <text x="44" y="23" fill="#dffef6" text-anchor="middle" font-size="12" font-weight="900" font-family="Arial,'Hiragino Sans','Yu Gothic',sans-serif">SEO 100</text>
  </g>
  <g transform="translate(334 182)" opacity=".98">
    <rect width="104" height="40" rx="20" fill="#083f36" stroke="#4bd5b6"/>
    <text x="52" y="26" fill="#dffef6" text-anchor="middle" font-size="13" font-weight="900" font-family="Arial,'Hiragino Sans','Yu Gothic',sans-serif">CTA</text>
  </g>
</svg>
